<svg width="20" height="20" viewBox="0 0 30 30" fill="none" xmlns="http://www.w3.org/2000/svg">
<g clip-path="url(#clip0_8_41)">
<path d="M26.6667 5H3.33335C2.89133 5 2.4674 5.17559 2.15484 5.48816C1.84228 5.80072 1.66669 6.22464 1.66669 6.66667V23.3333C1.66669 23.7754 1.84228 24.1993 2.15484 24.5118C2.4674 24.8244 2.89133 25 3.33335 25H26.6667C27.1087 25 27.5326 24.8244 27.8452 24.5118C28.1578 24.1993 28.3334 23.7754 28.3334 23.3333V6.66667C28.3334 6.22464 28.1578 5.80072 27.8452 5.48816C27.5326 5.17559 27.1087 5 26.6667 5ZM25.3834 23.3333H4.71669L10.55 17.3L9.35002 16.1417L3.33335 22.3667V7.93333L13.6917 18.2417C14.004 18.5521 14.4264 18.7263 14.8667 18.7263C15.307 18.7263 15.7294 18.5521 16.0417 18.2417L26.6667 7.675V22.2583L20.5334 16.125L19.3584 17.3L25.3834 23.3333ZM4.42502 6.66667H25.3167L14.8667 17.0583L4.42502 6.66667Z" fill="black" fill-opacity="0.7"/>
</g>
<defs>
<clipPath id="clip0_8_41">
<rect width="30" height="30" fill="white"/>
</clipPath>
</defs>
</svg>
