<svg width="20" height="20" viewBox="0 0 31 31" fill="none" xmlns="http://www.w3.org/2000/svg">
<path d="M15.5 3.22916C17.0192 3.2287 18.4984 3.71521 19.7207 4.61728C20.943 5.51935 21.844 6.78948 22.2913 8.24125C22.7387 9.69301 22.7089 11.2499 22.2064 12.6835C21.7038 14.1171 20.7549 15.3519 19.499 16.2065C21.6789 17.0061 23.5696 18.4397 24.9278 20.323C26.286 22.2062 27.0494 24.4528 27.1199 26.7737C27.1264 26.9025 27.1072 27.0313 27.0634 27.1526C27.0195 27.2739 26.9518 27.3852 26.8644 27.48C26.7769 27.5748 26.6714 27.6512 26.554 27.7047C26.4366 27.7582 26.3097 27.7877 26.1808 27.7915C26.0519 27.7952 25.9235 27.7732 25.8032 27.7267C25.6828 27.6802 25.573 27.6102 25.4801 27.5207C25.3873 27.4312 25.3132 27.324 25.2623 27.2055C25.2114 27.087 25.1846 26.9595 25.1837 26.8305C25.1067 24.3136 24.0529 21.9256 22.2453 20.1725C20.4378 18.4194 18.0187 17.4389 15.5007 17.4389C12.9826 17.4389 10.5635 18.4194 8.75602 20.1725C6.9485 21.9256 5.89462 24.3136 5.8177 26.8305C5.80999 27.0874 5.70053 27.3308 5.51341 27.507C5.32628 27.6832 5.07681 27.7779 4.81988 27.7702C4.56296 27.7625 4.31961 27.653 4.14339 27.4659C3.96716 27.2788 3.87249 27.0293 3.8802 26.7724C3.95091 24.4518 4.71448 22.2054 6.07262 20.3224C7.43077 18.4395 9.32134 17.006 11.501 16.2065C10.2451 15.3519 9.29626 14.1171 8.7937 12.6835C8.29114 11.2499 8.26135 9.69301 8.70872 8.24125C9.15608 6.78948 10.057 5.51935 11.2793 4.61728C12.5016 3.71521 13.9809 3.2287 15.5 3.22916ZM10.3334 10.3333C10.3334 11.7036 10.8777 13.0178 11.8466 13.9867C12.8156 14.9557 14.1297 15.5 15.5 15.5C16.8703 15.5 18.1845 14.9557 19.1534 13.9867C20.1224 13.0178 20.6667 11.7036 20.6667 10.3333C20.6667 8.96305 20.1224 7.64888 19.1534 6.67995C18.1845 5.71101 16.8703 5.16666 15.5 5.16666C14.1297 5.16666 12.8156 5.71101 11.8466 6.67995C10.8777 7.64888 10.3334 8.96305 10.3334 10.3333Z" fill="black" fill-opacity="0.7"/>
</svg>
